<svg xmlns="http://www.w3.org/2000/svg" width="558.661" height="363.471" overflow="visible"><path fill="none" stroke="#ED1C24" stroke-width="5" d="M12.967 349.469c15.107-87.283 25.932-180.142 54.214-264.61 31.17-93.095 54.138 17.688 65.096 53.934 11.354 37.558 23.177 74.976 34.309 112.6 26.534 89.679 79.275-25.286 92.183-45.57 11.749-18.462 20.938-43.699 69.798-48.289 70.298-6.604 177.054-4.848 224.858-5.774"/><path d="M118.876 45.522c.866-.165 2-.289 3.444-.289 1.773 0 3.073.413 3.898 1.155.763.66 1.237 1.67 1.237 2.908 0 1.258-.371 2.248-1.093 2.97-.949 1.011-2.496 1.526-4.249 1.526-.536 0-1.031-.021-1.443-.124v5.568h-1.794V45.522zm1.795 6.682c.392.103.907.144 1.485.144 2.186 0 3.485-1.072 3.485-2.949 0-1.856-1.299-2.743-3.279-2.743-.784 0-1.382.083-1.691.144v5.404zm9.633 2.351c.042 2.454 1.588 3.465 3.403 3.465 1.299 0 2.104-.227 2.764-.495l.33 1.279c-.639.289-1.753.639-3.341.639-3.053 0-4.909-2.042-4.909-5.032 0-3.032 1.794-5.403 4.702-5.403 3.259 0 4.104 2.867 4.104 4.702 0 .371-.021.66-.062.866l-6.991-.021zm5.301-1.299c.021-1.134-.475-2.949-2.496-2.949-1.856 0-2.64 1.691-2.784 2.949h5.28zm11.033 3.588c0 .866.041 1.712.144 2.393h-1.629l-.165-1.258h-.062c-.536.784-1.629 1.485-3.052 1.485-2.021 0-3.053-1.423-3.053-2.867 0-2.413 2.145-3.733 6.002-3.712v-.207c0-.825-.227-2.331-2.269-2.31-.949 0-1.918.268-2.619.742l-.413-1.217c.825-.516 2.042-.866 3.3-.866 3.073 0 3.815 2.083 3.815 4.083v3.734zm-1.774-2.701c-1.98-.041-4.228.31-4.228 2.248 0 1.196.784 1.732 1.691 1.732 1.32 0 2.166-.825 2.454-1.67.062-.186.083-.392.083-.578v-1.732zm6.497-.31h.042c.248-.351.577-.805.866-1.135l2.949-3.444h2.166l-3.857 4.104 4.393 5.878h-2.207l-3.424-4.806-.928 1.052v3.753h-1.815V44.594h1.815v9.239zm16.292 5.631c-2.681 0-4.785-1.98-4.785-5.136 0-3.341 2.207-5.3 4.95-5.3 2.867 0 4.806 2.083 4.806 5.115 0 3.712-2.578 5.321-4.95 5.321h-.021zm.062-1.361c1.732 0 3.032-1.629 3.032-3.898 0-1.691-.846-3.815-2.99-3.815-2.125 0-3.053 1.98-3.053 3.877 0 2.186 1.238 3.836 2.991 3.836h.02zm7.363 1.134v-8.6h-1.382v-1.382h1.382v-.475c0-1.402.33-2.681 1.176-3.485.681-.66 1.588-.928 2.413-.928.66 0 1.196.145 1.547.289l-.227 1.402c-.289-.124-.639-.227-1.176-.227-1.526 0-1.938 1.361-1.938 2.887v.537h2.413v1.382h-2.393v8.6h-1.815zm12.086-13.901v13.901h-1.815V45.336h1.815zm3.072 6.621c0-1.052-.021-1.877-.083-2.702h1.609l.103 1.629h.042c.495-.928 1.65-1.856 3.3-1.856 1.382 0 3.527.825 3.527 4.249v5.96h-1.815v-5.754c0-1.609-.598-2.97-2.31-2.97-1.176 0-2.104.846-2.434 1.856-.083.227-.124.557-.124.845v6.022h-1.815v-7.279zm11.611 7.28v-8.6h-1.382v-1.382h1.382v-.475c0-1.402.33-2.681 1.176-3.485.681-.66 1.588-.928 2.413-.928.66 0 1.196.145 1.547.289l-.227 1.402c-.289-.124-.639-.227-1.176-.227-1.526 0-1.938 1.361-1.938 2.887v.537h2.413v1.382h-2.393v8.6h-1.815zm5.857-14.643h1.815v14.643h-1.815V44.594zm11.859 12.25c0 .866.041 1.712.144 2.393h-1.629l-.165-1.258h-.062c-.536.784-1.629 1.485-3.052 1.485-2.021 0-3.053-1.423-3.053-2.867 0-2.413 2.145-3.733 6.002-3.712v-.207c0-.825-.227-2.331-2.269-2.31-.948 0-1.918.268-2.619.742l-.413-1.217c.825-.516 2.042-.866 3.3-.866 3.073 0 3.815 2.083 3.815 4.083v3.734zm-1.773-2.701c-1.98-.041-4.228.31-4.228 2.248 0 1.196.784 1.732 1.691 1.732 1.32 0 2.166-.825 2.454-1.67.062-.186.083-.392.083-.578v-1.732zm6.787-7.281v2.393h2.599v1.382h-2.599v5.383c0 1.237.351 1.938 1.361 1.938.495 0 .784-.041 1.052-.124l.082 1.382a4.937 4.937 0 0 1-1.608.248c-.846 0-1.526-.289-1.959-.763-.495-.557-.701-1.444-.701-2.619v-5.445h-1.547v-1.382h1.547v-1.836l1.773-.557zm5.55 7.693c.042 2.454 1.588 3.465 3.403 3.465 1.299 0 2.104-.227 2.764-.495l.33 1.279c-.639.289-1.753.639-3.341.639-3.052 0-4.909-2.042-4.909-5.032 0-3.032 1.794-5.403 4.702-5.403 3.259 0 4.104 2.867 4.104 4.702 0 .371-.021.66-.062.866l-6.991-.021zm5.301-1.299c.021-1.134-.475-2.949-2.496-2.949-1.856 0-2.64 1.691-2.784 2.949h5.28zm12.621-8.662v12.065c0 .887.021 1.897.083 2.578h-1.629l-.083-1.732h-.041c-.557 1.114-1.753 1.959-3.382 1.959-2.413 0-4.29-2.042-4.29-5.074-.021-3.341 2.062-5.362 4.476-5.362 1.547 0 2.578.722 3.011 1.505h.041v-5.939h1.814zm-1.815 8.724c0-.248-.021-.537-.083-.784-.268-1.135-1.258-2.083-2.619-2.083-1.877 0-2.991 1.65-2.991 3.836 0 2.042 1.011 3.712 2.949 3.712 1.217 0 2.331-.825 2.661-2.166a3.15 3.15 0 0 0 .083-.784v-1.731zm16.437-.598h-5.383v5.012h6.022v1.505h-7.837V45.336h7.528v1.506h-5.713v4.393h5.383v1.485zm3.754-3.465l1.423 2.124c.371.578.68 1.073 1.01 1.629h.062c.33-.578.66-1.093 1.011-1.629l1.382-2.124h1.98l-3.403 4.826 3.485 5.156h-2.062l-1.464-2.248a30.496 30.496 0 0 1-1.073-1.732h-.041c-.33.598-.681 1.134-1.052 1.732l-1.444 2.248h-2l3.547-5.094-3.382-4.888h2.021zm8.703 3.258c0-1.278-.021-2.31-.083-3.258h1.629l.103 1.711h.042c.722-1.237 1.918-1.938 3.527-1.938 2.433 0 4.249 2.042 4.249 5.074 0 3.588-2.207 5.362-4.538 5.362-1.34 0-2.475-.578-3.073-1.568h-.042v5.424h-1.815V52.513zm1.815 2.661c0 .248.021.516.083.743a2.777 2.777 0 0 0 2.702 2.124c1.918 0 3.031-1.567 3.031-3.856 0-2.001-1.031-3.712-2.949-3.712-1.237 0-2.413.866-2.763 2.227-.042.248-.104.516-.104.743v1.731zm10.971-.619c.041 2.454 1.588 3.465 3.402 3.465 1.3 0 2.104-.227 2.764-.495l.33 1.279c-.64.289-1.753.639-3.341.639-3.053 0-4.908-2.042-4.908-5.032 0-3.032 1.794-5.403 4.702-5.403 3.259 0 4.104 2.867 4.104 4.702 0 .371-.021.66-.062.866l-6.991-.021zm5.3-1.299c.021-1.134-.474-2.949-2.495-2.949-1.856 0-2.64 1.691-2.784 2.949h5.279zm11.117 5.63c-.475.227-1.526.578-2.867.578-3.011 0-4.97-2.042-4.97-5.115 0-3.073 2.104-5.321 5.362-5.321 1.072 0 2.021.268 2.516.536l-.412 1.382c-.434-.227-1.114-.474-2.104-.474-2.29 0-3.527 1.711-3.527 3.795 0 2.31 1.485 3.733 3.465 3.733a5.198 5.198 0 0 0 2.228-.475l.309 1.361zm4.576-12.024v2.393h2.599v1.382h-2.599v5.383c0 1.237.351 1.938 1.361 1.938.495 0 .784-.041 1.052-.124l.083 1.382a4.944 4.944 0 0 1-1.609.248c-.845 0-1.525-.289-1.959-.763-.495-.557-.701-1.444-.701-2.619v-5.445h-1.547v-1.382h1.547v-1.836l1.773-.557zm11.673 9.982c0 .866.042 1.712.145 2.393h-1.629l-.165-1.258h-.062c-.536.784-1.629 1.485-3.052 1.485-2.021 0-3.053-1.423-3.053-2.867 0-2.413 2.146-3.733 6.002-3.712v-.207c0-.825-.227-2.331-2.269-2.31-.949 0-1.918.268-2.619.742l-.413-1.217c.825-.516 2.042-.866 3.3-.866 3.073 0 3.815 2.083 3.815 4.083v3.734zm-1.773-2.701c-1.979-.041-4.228.31-4.228 2.248 0 1.196.783 1.732 1.69 1.732 1.32 0 2.166-.825 2.455-1.67.062-.186.082-.392.082-.578v-1.732zm6.787-7.281v2.393h2.599v1.382h-2.599v5.383c0 1.237.351 1.938 1.361 1.938.495 0 .784-.041 1.052-.124l.083 1.382a4.939 4.939 0 0 1-1.609.248c-.845 0-1.525-.289-1.959-.763-.495-.557-.701-1.444-.701-2.619v-5.445h-1.547v-1.382h1.547v-1.836l1.773-.557zm5.507.557c-.681 0-1.135-.536-1.135-1.175 0-.64.475-1.155 1.176-1.155s1.155.515 1.155 1.155c0 .639-.454 1.175-1.176 1.175h-.02zm-.867 11.818v-9.982h1.814v9.982h-1.814zm8.889.227c-2.681 0-4.784-1.98-4.784-5.136 0-3.341 2.206-5.3 4.949-5.3 2.867 0 4.806 2.083 4.806 5.115 0 3.712-2.578 5.321-4.95 5.321h-.021zm.063-1.361c1.732 0 3.031-1.629 3.031-3.898 0-1.691-.846-3.815-2.99-3.815-2.125 0-3.053 1.98-3.053 3.877 0 2.186 1.237 3.836 2.99 3.836h.022zm7.197-6.146c0-1.052-.021-1.877-.083-2.702h1.609l.103 1.629h.041c.495-.928 1.65-1.856 3.3-1.856 1.382 0 3.527.825 3.527 4.249v5.96h-1.815v-5.754c0-1.609-.598-2.97-2.31-2.97-1.176 0-2.104.846-2.434 1.856-.083.227-.124.557-.124.845v6.022h-1.814v-7.279zm11.198 5.444c.557.33 1.506.701 2.413.701 1.3 0 1.918-.639 1.918-1.485 0-.866-.516-1.341-1.835-1.835-1.815-.66-2.661-1.629-2.661-2.826 0-1.609 1.32-2.929 3.444-2.929 1.011 0 1.897.268 2.434.619l-.433 1.299c-.392-.227-1.114-.577-2.042-.577-1.072 0-1.65.619-1.65 1.361 0 .846.578 1.217 1.877 1.712 1.712.639 2.619 1.505 2.619 3.011 0 1.773-1.382 3.011-3.712 3.011-1.093 0-2.104-.289-2.805-.702l.433-1.36z"/><g><path d="M310.495 128.408c.866-.165 2-.289 3.444-.289 1.773 0 3.073.413 3.897 1.155.764.66 1.238 1.67 1.238 2.908 0 1.258-.371 2.248-1.094 2.97-.948 1.011-2.495 1.526-4.248 1.526-.537 0-1.031-.021-1.443-.124v5.568h-1.795v-13.714zm1.795 6.682c.391.103.906.144 1.484.144 2.186 0 3.485-1.072 3.485-2.949 0-1.856-1.3-2.743-3.279-2.743a9.09 9.09 0 0 0-1.69.144v5.404zm9.014-7.611h1.815v14.643h-1.815v-14.643zm11.859 12.251c0 .866.041 1.712.145 2.393h-1.629l-.165-1.258h-.062c-.537.784-1.63 1.485-3.053 1.485-2.021 0-3.053-1.423-3.053-2.867 0-2.413 2.145-3.733 6.002-3.712v-.207c0-.825-.227-2.331-2.27-2.31-.947 0-1.918.268-2.619.742l-.412-1.217c.825-.516 2.042-.866 3.301-.866 3.072 0 3.814 2.083 3.814 4.083v3.734zm-1.773-2.702c-1.98-.041-4.229.31-4.229 2.248 0 1.196.784 1.732 1.691 1.732 1.32 0 2.166-.825 2.455-1.67.062-.186.082-.392.082-.578v-1.732zm6.787-7.28v2.393h2.599v1.382h-2.599v5.383c0 1.237.351 1.938 1.361 1.938.494 0 .783-.041 1.052-.124l.082 1.382a4.937 4.937 0 0 1-1.608.248c-.846 0-1.526-.289-1.959-.763-.495-.557-.701-1.444-.701-2.619v-5.445h-1.547v-1.382h1.547v-1.836l1.773-.557zm5.551 7.693c.041 2.454 1.588 3.465 3.402 3.465 1.3 0 2.104-.227 2.764-.495l.33 1.279c-.639.289-1.753.639-3.341.639-3.052 0-4.909-2.042-4.909-5.032 0-3.032 1.795-5.403 4.703-5.403 3.258 0 4.104 2.867 4.104 4.702 0 .371-.02.66-.062.866l-6.991-.021zm5.3-1.299c.02-1.134-.475-2.949-2.496-2.949-1.856 0-2.641 1.691-2.784 2.949h5.28zm11.034 3.588c0 .866.041 1.712.145 2.393h-1.63l-.165-1.258h-.062c-.536.784-1.63 1.485-3.052 1.485-2.021 0-3.053-1.423-3.053-2.867 0-2.413 2.145-3.733 6.002-3.712v-.207c0-.825-.228-2.331-2.27-2.31-.949 0-1.918.268-2.619.742l-.412-1.217c.824-.516 2.041-.866 3.3-.866 3.073 0 3.815 2.083 3.815 4.083v3.734zm-1.774-2.702c-1.98-.041-4.229.31-4.229 2.248 0 1.196.783 1.732 1.691 1.732 1.32 0 2.166-.825 2.454-1.67.062-.186.083-.392.083-.578v-1.732zm13.033 2.372c0 1.031.021 1.938.083 2.722h-1.608l-.104-1.629h-.041c-.454.804-1.526 1.856-3.301 1.856-1.566 0-3.443-.887-3.443-4.373v-5.836h1.814v5.506c0 1.897.599 3.197 2.228 3.197 1.217 0 2.062-.846 2.393-1.67.103-.248.165-.578.165-.928v-6.104h1.814v7.259zm11.447 2.95c-2.681 0-4.784-1.98-4.784-5.136 0-3.341 2.207-5.3 4.949-5.3 2.867 0 4.806 2.083 4.806 5.115 0 3.712-2.578 5.321-4.95 5.321h-.021zm.061-1.362c1.732 0 3.032-1.629 3.032-3.898 0-1.691-.846-3.815-2.991-3.815-2.123 0-3.052 1.98-3.052 3.877 0 2.186 1.237 3.836 2.991 3.836h.02zm7.363 1.135v-8.6h-1.382v-1.382h1.382v-.475c0-1.402.33-2.681 1.176-3.485.681-.66 1.588-.928 2.413-.928.659 0 1.196.145 1.547.289l-.228 1.402c-.288-.124-.639-.227-1.176-.227-1.525 0-1.938 1.361-1.938 2.887v.537h2.412v1.382h-2.393v8.6h-1.813zm10.291-13.715c.866-.165 2-.289 3.444-.289 1.773 0 3.073.413 3.897 1.155.764.66 1.238 1.67 1.238 2.908 0 1.258-.371 2.248-1.094 2.97-.948 1.011-2.495 1.526-4.248 1.526-.537 0-1.031-.021-1.443-.124v5.568h-1.795v-13.714zm1.795 6.682c.391.103.906.144 1.484.144 2.186 0 3.485-1.072 3.485-2.949 0-1.856-1.3-2.743-3.279-2.743a9.09 9.09 0 0 0-1.69.144v5.404zm8.789.165a46.99 46.99 0 0 0-.083-3.114h1.588l.083 1.959h.062c.454-1.34 1.567-2.186 2.784-2.186.186 0 .33.021.495.062v1.691c-.206-.021-.392-.041-.64-.041-1.279 0-2.186.969-2.434 2.31a5.745 5.745 0 0 0-.062.866v5.321h-1.814l.021-6.868zm10.664 7.095c-2.681 0-4.784-1.98-4.784-5.136 0-3.341 2.207-5.3 4.95-5.3 2.866 0 4.805 2.083 4.805 5.115 0 3.712-2.578 5.321-4.949 5.321h-.022zm.063-1.362c1.732 0 3.031-1.629 3.031-3.898 0-1.691-.846-3.815-2.99-3.815-2.124 0-3.053 1.98-3.053 3.877 0 2.186 1.238 3.836 2.991 3.836h.021zm15.838-13.509v12.065c0 .887.021 1.897.083 2.578h-1.63l-.082-1.732h-.041c-.557 1.114-1.754 1.959-3.383 1.959-2.412 0-4.289-2.042-4.289-5.074-.021-3.341 2.062-5.362 4.475-5.362 1.547 0 2.578.722 3.012 1.505h.041v-5.939h1.814zm-1.815 8.725a3.42 3.42 0 0 0-.082-.784c-.269-1.135-1.258-2.083-2.619-2.083-1.877 0-2.991 1.65-2.991 3.836 0 2.042 1.011 3.712 2.949 3.712 1.217 0 2.331-.825 2.661-2.166a3.15 3.15 0 0 0 .082-.784v-1.731zm13.179 3.196c0 1.031.021 1.938.083 2.722h-1.609l-.104-1.629h-.041c-.453.804-1.525 1.856-3.3 1.856-1.567 0-3.444-.887-3.444-4.373v-5.836h1.815v5.506c0 1.897.599 3.197 2.228 3.197 1.217 0 2.062-.846 2.393-1.67.103-.248.164-.578.164-.928v-6.104h1.815v7.259zm10.126 2.372c-.475.227-1.525.578-2.867.578-3.01 0-4.97-2.042-4.97-5.115 0-3.073 2.104-5.321 5.362-5.321 1.072 0 2.021.268 2.516.536l-.412 1.382c-.434-.227-1.113-.474-2.104-.474-2.289 0-3.527 1.711-3.527 3.795 0 2.31 1.485 3.733 3.465 3.733a5.203 5.203 0 0 0 2.229-.475l.308 1.361zm4.578-12.024v2.393h2.598v1.382H463.7v5.383c0 1.237.35 1.938 1.36 1.938.495 0 .784-.041 1.052-.124l.082 1.382c-.35.124-.906.248-1.607.248-.846 0-1.527-.289-1.96-.763-.495-.557-.701-1.444-.701-2.619v-5.445h-1.547v-1.382h1.547v-1.836l1.774-.557zm5.506.557c-.68 0-1.135-.536-1.135-1.175 0-.64.475-1.155 1.176-1.155s1.155.515 1.155 1.155c0 .639-.454 1.175-1.175 1.175h-.021zm-.866 11.818v-9.982h1.815v9.982h-1.815zm5.526-9.982l1.961 5.589c.328.928.598 1.753.803 2.578h.062c.227-.825.516-1.65.846-2.578l1.939-5.589h1.896l-3.918 9.982h-1.732l-3.795-9.982h1.938zm10.086-1.836c-.682 0-1.135-.536-1.135-1.175 0-.64.475-1.155 1.176-1.155s1.154.515 1.154 1.155c0 .639-.453 1.175-1.176 1.175h-.019zm-.867 11.818v-9.982h1.814v9.982h-1.814zm7.012-12.375v2.393h2.6v1.382h-2.6v5.383c0 1.237.352 1.938 1.361 1.938.496 0 .785-.041 1.053-.124l.082 1.382a4.93 4.93 0 0 1-1.609.248c-.844 0-1.525-.289-1.959-.763-.494-.557-.701-1.444-.701-2.619v-5.445h-1.547v-1.382h1.547v-1.836l1.773-.557zm5.482 2.393l2.166 5.898c.246.66.494 1.444.66 2.042h.041c.186-.598.391-1.361.639-2.083l1.98-5.857h1.918l-2.723 7.115c-1.299 3.423-2.186 5.177-3.424 6.27-.906.763-1.773 1.073-2.227 1.155l-.455-1.526c.455-.124 1.053-.413 1.588-.887.496-.392 1.094-1.093 1.527-2.021.082-.186.145-.309.145-.433 0-.103-.041-.247-.145-.454l-3.672-9.219h1.982z"/></g><g><path d="M265.483 231.608c.805.516 1.959.906 3.197.906 1.836 0 2.908-.948 2.908-2.371 0-1.279-.743-2.042-2.619-2.743-2.269-.825-3.671-2.021-3.671-3.96 0-2.166 1.794-3.773 4.496-3.773 1.402 0 2.455.33 3.053.68l-.495 1.465c-.433-.269-1.361-.66-2.619-.66-1.897 0-2.62 1.135-2.62 2.083 0 1.3.846 1.938 2.764 2.681 2.351.929 3.527 2.043 3.527 4.084 0 2.145-1.567 4.021-4.847 4.021-1.341 0-2.805-.412-3.547-.907l.473-1.506zm10.292-12.457h1.815v14.643h-1.815v-14.643zm8.889 14.869c-2.681 0-4.785-1.979-4.785-5.135 0-3.342 2.207-5.301 4.95-5.301 2.867 0 4.806 2.083 4.806 5.115 0 3.712-2.578 5.32-4.95 5.32h-.021zm.062-1.361c1.732 0 3.032-1.629 3.032-3.897 0-1.691-.846-3.815-2.991-3.815-2.124 0-3.052 1.98-3.052 3.877 0 2.187 1.238 3.836 2.991 3.836h.02zm7.197-5.589c0-1.278-.02-2.31-.082-3.259h1.629l.104 1.712h.041c.723-1.237 1.918-1.938 3.527-1.938 2.434 0 4.248 2.042 4.248 5.074 0 3.588-2.207 5.361-4.537 5.361-1.34 0-2.475-.577-3.072-1.567h-.042v5.425h-1.815V227.07zm1.815 2.661c0 .247.021.516.083.742a2.776 2.776 0 0 0 2.701 2.124c1.918 0 3.032-1.567 3.032-3.856 0-2.001-1.031-3.713-2.95-3.713-1.236 0-2.412.867-2.763 2.228-.042.247-.104.516-.104.743v1.732zm10.972-.619c.041 2.454 1.588 3.465 3.402 3.465 1.3 0 2.104-.227 2.764-.495l.33 1.278c-.639.289-1.753.64-3.341.64-3.052 0-4.909-2.042-4.909-5.032 0-3.031 1.795-5.403 4.703-5.403 3.258 0 4.104 2.866 4.104 4.702 0 .371-.02.66-.062.866l-6.991-.021zm5.301-1.299c.02-1.135-.475-2.949-2.496-2.949-1.856 0-2.641 1.69-2.784 2.949h5.28zm12.435 6.207c-2.682 0-4.785-1.979-4.785-5.135 0-3.342 2.207-5.301 4.949-5.301 2.867 0 4.807 2.083 4.807 5.115 0 3.712-2.578 5.32-4.95 5.32h-.021zm.062-1.361c1.732 0 3.032-1.629 3.032-3.897 0-1.691-.846-3.815-2.99-3.815-2.125 0-3.053 1.98-3.053 3.877 0 2.187 1.237 3.836 2.99 3.836h.021zm7.362 1.134v-8.6h-1.381v-1.383h1.381v-.475c0-1.402.33-2.681 1.176-3.484.682-.66 1.588-.929 2.414-.929.659 0 1.195.145 1.547.289l-.228 1.402a2.81 2.81 0 0 0-1.176-.228c-1.526 0-1.938 1.361-1.938 2.888v.536h2.413v1.383h-2.393v8.6h-1.815zm17.469-6.517h-5.383v5.012h6.021v1.506h-7.836v-13.9h7.527v1.506h-5.713v4.393h5.383v1.483zm2.907-.763c0-1.052-.021-1.877-.083-2.702h1.609l.104 1.629h.041c.494-.928 1.65-1.855 3.3-1.855 1.382 0 3.526.825 3.526 4.248v5.961h-1.814v-5.754c0-1.609-.598-2.971-2.311-2.971-1.176 0-2.104.846-2.434 1.857-.082.227-.123.557-.123.845v6.022h-1.815v-7.28zm11.446-7.362h1.814v14.643h-1.814v-14.643zm5.692 2.824c-.68 0-1.134-.535-1.134-1.175s.475-1.155 1.176-1.155 1.155.516 1.155 1.155-.454 1.175-1.176 1.175h-.021zm-.865 11.818v-9.982h1.814v9.982h-1.814zm13.364-1.464c0 2.311-.474 3.692-1.423 4.579-.99.887-2.393 1.196-3.65 1.196-1.196 0-2.517-.289-3.32-.825l.453-1.402c.66.433 1.691.804 2.929.804 1.856 0 3.218-.969 3.218-3.506v-1.093h-.041c-.537.929-1.63 1.671-3.177 1.671-2.475 0-4.249-2.104-4.249-4.889 0-3.382 2.207-5.279 4.518-5.279 1.732 0 2.66.887 3.113 1.712h.042l.062-1.485h1.609c-.062.701-.083 1.506-.083 2.723v5.794zm-1.816-4.599c0-.288-.02-.557-.103-.804-.33-1.073-1.196-1.939-2.536-1.939-1.732 0-2.971 1.465-2.971 3.795 0 1.938 1.011 3.589 2.949 3.589 1.135 0 2.145-.702 2.516-1.877a2.96 2.96 0 0 0 .145-.97v-1.794zm4.805-8.579h1.815v6.229h.042c.288-.516.742-.99 1.299-1.279a3.534 3.534 0 0 1 1.855-.516c1.342 0 3.486.825 3.486 4.27v5.939h-1.814v-5.733c0-1.63-.599-2.97-2.311-2.97-1.176 0-2.083.824-2.434 1.814-.104.248-.124.516-.124.866v6.022h-1.815v-14.642zm13.553 2.267v2.393h2.599v1.383h-2.599v5.383c0 1.236.351 1.938 1.361 1.938.494 0 .783-.041 1.052-.123l.082 1.382a4.941 4.941 0 0 1-1.608.247c-.846 0-1.526-.289-1.959-.763-.495-.558-.701-1.444-.701-2.619v-5.444h-1.547v-1.383h1.547v-1.836l1.773-.558zm5.551 7.694c.041 2.454 1.588 3.465 3.402 3.465 1.3 0 2.104-.227 2.764-.495l.33 1.278c-.639.289-1.753.64-3.341.64-3.052 0-4.909-2.042-4.909-5.032 0-3.031 1.795-5.403 4.703-5.403 3.258 0 4.104 2.866 4.104 4.702 0 .371-.02.66-.062.866l-6.991-.021zm5.3-1.299c.02-1.135-.475-2.949-2.496-2.949-1.856 0-2.641 1.69-2.784 2.949h5.28zm4-1.3a35.77 35.77 0 0 0-.082-2.702h1.608l.103 1.629h.042c.495-.928 1.649-1.855 3.3-1.855 1.382 0 3.527.825 3.527 4.248v5.961h-1.815v-5.754c0-1.609-.599-2.971-2.31-2.971-1.176 0-2.104.846-2.434 1.857-.083.227-.125.557-.125.845v6.022h-1.814v-7.28zm11.447 0c0-1.052-.041-1.877-.083-2.702h1.589l.083 1.609h.061c.558-.949 1.486-1.836 3.156-1.836 1.34 0 2.371.825 2.805 2h.041a3.974 3.974 0 0 1 1.135-1.299c.598-.453 1.238-.701 2.186-.701 1.342 0 3.301.866 3.301 4.331v5.878h-1.773v-5.65c0-1.939-.723-3.074-2.166-3.074-1.053 0-1.836.764-2.166 1.63a3.243 3.243 0 0 0-.145.907v6.188h-1.773v-5.98c0-1.609-.701-2.744-2.082-2.744-1.114 0-1.96.908-2.248 1.815a2.484 2.484 0 0 0-.145.887v6.022h-1.774v-7.281zm18.231 2.599c.041 2.454 1.588 3.465 3.402 3.465 1.301 0 2.104-.227 2.764-.495l.33 1.278c-.639.289-1.752.64-3.34.64-3.053 0-4.908-2.042-4.908-5.032 0-3.031 1.793-5.403 4.701-5.403 3.26 0 4.104 2.866 4.104 4.702 0 .371-.02.66-.061.866l-6.992-.021zm5.301-1.299c.02-1.135-.475-2.949-2.496-2.949-1.855 0-2.639 1.69-2.783 2.949h5.279zm4-1.3c0-1.052-.02-1.877-.082-2.702h1.609l.102 1.629h.041c.496-.928 1.65-1.855 3.301-1.855 1.381 0 3.527.825 3.527 4.248v5.961h-1.816v-5.754c0-1.609-.598-2.971-2.309-2.971-1.176 0-2.104.846-2.434 1.857-.084.227-.125.557-.125.845v6.022h-1.814v-7.28zm13.553-5.095v2.393h2.598v1.383h-2.598v5.383c0 1.236.35 1.938 1.361 1.938.494 0 .783-.041 1.051-.123l.084 1.382a4.953 4.953 0 0 1-1.609.247c-.846 0-1.525-.289-1.959-.763-.496-.558-.701-1.444-.701-2.619v-5.444h-1.547v-1.383h1.547v-1.836l1.773-.558z"/></g><g><path d="M158.959 298.721h-4.228v-1.525h10.292v1.525h-4.249v12.375h-1.815v-12.375zm6.643 5.508c0-1.176-.021-2.188-.083-3.115h1.588l.083 1.959h.062c.454-1.34 1.567-2.186 2.784-2.186.186 0 .33.021.495.062v1.69c-.207-.021-.392-.041-.64-.041-1.279 0-2.186.97-2.434 2.31a5.745 5.745 0 0 0-.062.866v5.321h-1.815l.022-6.866zm10.665 7.094c-2.681 0-4.785-1.979-4.785-5.135 0-3.342 2.207-5.301 4.95-5.301 2.867 0 4.806 2.083 4.806 5.115 0 3.712-2.578 5.32-4.95 5.32h-.021zm.062-1.362c1.732 0 3.032-1.629 3.032-3.897 0-1.691-.846-3.815-2.99-3.815-2.125 0-3.053 1.98-3.053 3.877 0 2.187 1.238 3.836 2.991 3.836h.02zm15.55-1.587c0 1.031.021 1.939.083 2.723h-1.609l-.103-1.629h-.041c-.454.804-1.526 1.855-3.3 1.855-1.567 0-3.444-.887-3.444-4.372v-5.837h1.815v5.507c0 1.897.598 3.196 2.227 3.196 1.217 0 2.062-.846 2.393-1.67.103-.248.165-.578.165-.928v-6.105h1.815v7.26zm11.55 1.257c0 2.311-.474 3.692-1.423 4.579-.99.887-2.393 1.196-3.651 1.196-1.196 0-2.516-.289-3.32-.825l.454-1.402c.66.433 1.691.804 2.929.804 1.856 0 3.217-.969 3.217-3.506v-1.093h-.041c-.536.929-1.629 1.671-3.176 1.671-2.475 0-4.249-2.104-4.249-4.889 0-3.382 2.207-5.279 4.517-5.279 1.732 0 2.661.887 3.114 1.712h.042l.062-1.485h1.609c-.062.701-.083 1.506-.083 2.723v5.794zm-1.815-4.598c0-.288-.021-.557-.103-.804-.33-1.073-1.196-1.939-2.537-1.939-1.732 0-2.97 1.465-2.97 3.795 0 1.938 1.011 3.589 2.949 3.589 1.134 0 2.145-.702 2.516-1.877a2.96 2.96 0 0 0 .145-.97v-1.794zm4.805-8.579h1.815v6.229h.042c.289-.516.742-.99 1.299-1.279a3.533 3.533 0 0 1 1.856-.516c1.341 0 3.486.825 3.486 4.27v5.939h-1.815v-5.733c0-1.63-.598-2.97-2.31-2.97-1.176 0-2.083.824-2.434 1.814-.103.248-.124.516-.124.866v6.022h-1.815v-14.642zm19.881 14.869c-2.681 0-4.785-1.979-4.785-5.135 0-3.342 2.207-5.301 4.95-5.301 2.867 0 4.806 2.083 4.806 5.115 0 3.712-2.578 5.32-4.95 5.32h-.021zm.062-1.362c1.732 0 3.032-1.629 3.032-3.897 0-1.691-.846-3.815-2.991-3.815-2.124 0-3.052 1.98-3.052 3.877 0 2.187 1.238 3.836 2.991 3.836h.02zm7.363 1.135v-8.6h-1.382v-1.383h1.382v-.475c0-1.402.33-2.681 1.176-3.484.681-.66 1.588-.929 2.413-.929.66 0 1.196.145 1.547.289l-.227 1.402a2.81 2.81 0 0 0-1.176-.228c-1.526 0-1.938 1.361-1.938 2.888v.536h2.413v1.383h-2.393v8.6h-1.815zm10.27-13.715a26.222 26.222 0 0 1 3.836-.289c2.578 0 4.414.578 5.63 1.712 1.258 1.134 1.98 2.764 1.98 5.012 0 2.269-.722 4.125-2 5.403-1.32 1.299-3.465 2-6.167 2-1.299 0-2.351-.041-3.279-.164v-13.674zm1.815 12.313c.454.082 1.114.082 1.815.082 3.836.021 5.919-2.145 5.919-5.898.021-3.32-1.835-5.361-5.63-5.361-.928 0-1.629.082-2.104.186v10.991zm12.785-10.416c-.68 0-1.134-.535-1.134-1.175s.475-1.155 1.176-1.155 1.155.516 1.155 1.155-.454 1.175-1.175 1.175h-.022zm-.866 11.818v-9.982h1.815v9.982h-1.815zm4.579-1.836c.557.33 1.505.701 2.413.701 1.299 0 1.918-.639 1.918-1.484 0-.866-.516-1.341-1.836-1.836-1.815-.66-2.66-1.629-2.66-2.825 0-1.608 1.32-2.929 3.444-2.929 1.011 0 1.897.268 2.434.619l-.433 1.299c-.392-.227-1.114-.577-2.042-.577-1.072 0-1.65.618-1.65 1.36 0 .846.578 1.217 1.877 1.713 1.711.639 2.619 1.505 2.619 3.011 0 1.773-1.382 3.011-3.712 3.011-1.093 0-2.104-.289-2.805-.701l.433-1.362zm9.28-9.982c-.68 0-1.134-.535-1.134-1.175s.475-1.155 1.176-1.155 1.155.516 1.155 1.155-.454 1.175-1.175 1.175h-.022zm-.866 11.818v-9.982h1.815v9.982h-1.815zm4.826-14.642h1.815v14.643h-1.815v-14.643zm4.826 0h1.815v14.643h-1.815v-14.643zm13.179 11.92c0 1.031.021 1.939.083 2.723h-1.609l-.104-1.629h-.041c-.453.804-1.525 1.855-3.3 1.855-1.567 0-3.444-.887-3.444-4.372v-5.837h1.815v5.507c0 1.897.599 3.196 2.228 3.196 1.217 0 2.062-.846 2.393-1.67.103-.248.164-.578.164-.928v-6.105h1.815v7.26zm2.762.886c.557.33 1.506.701 2.413.701 1.3 0 1.919-.639 1.919-1.484 0-.866-.516-1.341-1.836-1.836-1.815-.66-2.66-1.629-2.66-2.825 0-1.608 1.319-2.929 3.443-2.929 1.011 0 1.897.268 2.434.619l-.433 1.299c-.392-.227-1.114-.577-2.042-.577-1.072 0-1.65.618-1.65 1.36 0 .846.578 1.217 1.877 1.713 1.712.639 2.619 1.505 2.619 3.011 0 1.773-1.381 3.011-3.712 3.011-1.093 0-2.104-.289-2.805-.701l.433-1.362zm9.282-9.982c-.681 0-1.135-.535-1.135-1.175s.475-1.155 1.176-1.155 1.154.516 1.154 1.155-.453 1.175-1.175 1.175h-.02zm-.868 11.818v-9.982h1.815v9.982h-1.815zm8.89.227c-2.681 0-4.784-1.979-4.784-5.135 0-3.342 2.207-5.301 4.949-5.301 2.867 0 4.807 2.083 4.807 5.115 0 3.712-2.578 5.32-4.951 5.32h-.021zm.062-1.362c1.732 0 3.033-1.629 3.033-3.897 0-1.691-.846-3.815-2.992-3.815-2.123 0-3.052 1.98-3.052 3.877 0 2.187 1.237 3.836 2.991 3.836h.02zm7.197-6.145c0-1.052-.02-1.877-.082-2.702h1.609l.104 1.629h.041c.494-.928 1.648-1.855 3.299-1.855 1.383 0 3.527.825 3.527 4.248v5.961h-1.814v-5.754c0-1.609-.6-2.971-2.311-2.971-1.176 0-2.104.846-2.434 1.857-.082.227-.123.557-.123.845v6.022h-1.816v-7.28zm11.447 0c0-1.052-.043-1.877-.084-2.702h1.588l.084 1.609h.061c.557-.949 1.486-1.836 3.156-1.836 1.34 0 2.371.825 2.805 2h.041a3.974 3.974 0 0 1 1.135-1.299c.598-.453 1.238-.701 2.186-.701 1.342 0 3.301.866 3.301 4.331v5.878h-1.773v-5.65c0-1.939-.723-3.074-2.166-3.074-1.053 0-1.836.764-2.166 1.63a3.243 3.243 0 0 0-.145.907v6.188h-1.773v-5.98c0-1.609-.701-2.744-2.082-2.744-1.115 0-1.961.908-2.248 1.815a2.484 2.484 0 0 0-.145.887v6.022h-1.773v-7.281zm18.233 2.599c.041 2.454 1.588 3.465 3.402 3.465 1.299 0 2.104-.227 2.764-.495l.33 1.278c-.641.289-1.754.64-3.342.64-3.053 0-4.908-2.042-4.908-5.032 0-3.031 1.795-5.403 4.703-5.403 3.258 0 4.104 2.866 4.104 4.702 0 .371-.021.66-.062.866l-6.991-.021zm5.298-1.299c.021-1.135-.473-2.949-2.494-2.949-1.857 0-2.641 1.69-2.785 2.949h5.279zm4.002-1.3c0-1.052-.021-1.877-.084-2.702h1.609l.104 1.629h.041c.494-.928 1.65-1.855 3.299-1.855 1.383 0 3.527.825 3.527 4.248v5.961h-1.814v-5.754c0-1.609-.598-2.971-2.311-2.971-1.176 0-2.104.846-2.434 1.857-.082.227-.123.557-.123.845v6.022h-1.814v-7.28zm13.551-5.095v2.393h2.598v1.383h-2.598v5.383c0 1.236.35 1.938 1.361 1.938.494 0 .783-.041 1.051-.123l.084 1.382a4.953 4.953 0 0 1-1.609.247c-.846 0-1.525-.289-1.959-.763-.496-.558-.701-1.444-.701-2.619v-5.444h-1.547v-1.383h1.547v-1.836l1.773-.558z"/></g><g><path d="M28.136 332.335h-4.228v-1.526H34.2v1.526h-4.249v12.374h-1.815v-12.374zm7.26 7.693c.042 2.455 1.588 3.465 3.403 3.465 1.299 0 2.104-.227 2.764-.494l.33 1.278c-.639.288-1.753.64-3.341.64-3.052 0-4.909-2.042-4.909-5.033 0-3.031 1.794-5.402 4.702-5.402 3.259 0 4.104 2.866 4.104 4.701 0 .371-.021.66-.062.867l-6.991-.022zm5.3-1.299c.021-1.135-.475-2.949-2.496-2.949-1.856 0-2.64 1.691-2.784 2.949h5.28zm11.116 5.631c-.475.227-1.526.577-2.867.577-3.011 0-4.97-2.042-4.97-5.114 0-3.074 2.104-5.322 5.362-5.322 1.072 0 2.021.269 2.516.537l-.413 1.381c-.433-.227-1.114-.474-2.104-.474-2.289 0-3.527 1.712-3.527 3.795 0 2.31 1.485 3.733 3.465 3.733a5.198 5.198 0 0 0 2.228-.475l.31 1.362zm2.125-14.293h1.815v6.229h.042c.289-.516.742-.99 1.299-1.279a3.533 3.533 0 0 1 1.856-.516c1.341 0 3.486.826 3.486 4.27v5.939H60.62v-5.732c0-1.63-.598-2.971-2.31-2.971-1.176 0-2.083.825-2.434 1.814-.103.248-.124.516-.124.867v6.021h-1.815v-14.642zm11.445 7.363c0-1.053-.021-1.877-.083-2.702h1.609l.103 1.629h.042c.495-.928 1.65-1.856 3.3-1.856 1.382 0 3.527.826 3.527 4.249v5.96h-1.815v-5.754c0-1.608-.598-2.97-2.31-2.97-1.176 0-2.104.846-2.434 1.856-.083.227-.124.557-.124.846v6.021h-1.815v-7.279zm15.51 7.507c-2.681 0-4.785-1.979-4.785-5.136 0-3.341 2.207-5.301 4.95-5.301 2.867 0 4.806 2.084 4.806 5.115 0 3.713-2.578 5.321-4.95 5.321h-.021zm.062-1.361c1.732 0 3.032-1.63 3.032-3.897 0-1.691-.846-3.816-2.99-3.816-2.125 0-3.053 1.98-3.053 3.878 0 2.187 1.238 3.836 2.991 3.836h.02zm7.197-13.509h1.815v14.643h-1.815v-14.643zm8.889 14.87c-2.681 0-4.785-1.979-4.785-5.136 0-3.341 2.207-5.301 4.95-5.301 2.867 0 4.806 2.084 4.806 5.115 0 3.713-2.578 5.321-4.95 5.321h-.021zm.062-1.361c1.732 0 3.032-1.63 3.032-3.897 0-1.691-.846-3.816-2.99-3.816-2.125 0-3.053 1.98-3.053 3.878 0 2.187 1.238 3.836 2.991 3.836h.02zm15.756-.33c0 2.31-.474 3.692-1.423 4.579-.99.887-2.393 1.195-3.651 1.195-1.196 0-2.516-.289-3.32-.824l.454-1.402c.66.433 1.691.804 2.929.804 1.856 0 3.217-.97 3.217-3.506v-1.093h-.041c-.536.928-1.629 1.67-3.176 1.67-2.475 0-4.249-2.104-4.249-4.888 0-3.382 2.207-5.28 4.517-5.28 1.732 0 2.661.887 3.114 1.713h.042l.062-1.485h1.609c-.062.701-.083 1.505-.083 2.722v5.795zm-1.815-4.599c0-.289-.021-.557-.103-.805-.33-1.072-1.196-1.939-2.537-1.939-1.732 0-2.97 1.465-2.97 3.795 0 1.939 1.011 3.59 2.949 3.59 1.134 0 2.145-.702 2.516-1.877.104-.289.145-.641.145-.97v-1.794zm5.445-3.919l2.166 5.898c.248.659.495 1.444.66 2.042h.041c.186-.598.392-1.361.639-2.084l1.98-5.856h1.918l-2.723 7.115c-1.299 3.423-2.186 5.177-3.423 6.27-.908.763-1.774 1.073-2.228 1.155l-.454-1.526c.454-.124 1.052-.413 1.588-.887.495-.392 1.093-1.093 1.526-2.021.082-.186.144-.31.144-.433 0-.104-.041-.248-.144-.454l-3.671-9.219h1.981zm15.287-2.393h-4.228v-1.526h10.292v1.526h-4.249v12.374h-1.815v-12.374zm6.642 5.507a46.99 46.99 0 0 0-.083-3.114h1.588l.083 1.959h.062c.454-1.341 1.567-2.187 2.784-2.187.186 0 .33.021.495.062v1.691c-.207-.021-.392-.041-.64-.041-1.279 0-2.186.969-2.434 2.309-.041.27-.062.558-.062.867v5.32h-1.815l.022-6.866zm7.67-4.95c-.68 0-1.134-.536-1.134-1.175 0-.641.475-1.155 1.176-1.155s1.155.515 1.155 1.155c0 .639-.454 1.175-1.175 1.175h-.022zm-.866 11.817v-9.981h1.815v9.981h-1.815zm13.364-1.463c0 2.31-.474 3.692-1.423 4.579-.99.887-2.393 1.195-3.651 1.195-1.196 0-2.516-.289-3.32-.824l.454-1.402c.66.433 1.691.804 2.929.804 1.856 0 3.217-.97 3.217-3.506v-1.093h-.041c-.536.928-1.629 1.67-3.176 1.67-2.475 0-4.249-2.104-4.249-4.888 0-3.382 2.207-5.28 4.517-5.28 1.732 0 2.661.887 3.114 1.713h.042l.062-1.485h1.609c-.062.701-.083 1.505-.083 2.722v5.795zm-1.814-4.599c0-.289-.021-.557-.103-.805-.33-1.072-1.196-1.939-2.537-1.939-1.732 0-2.97 1.465-2.97 3.795 0 1.939 1.011 3.59 2.949 3.59 1.134 0 2.145-.702 2.516-1.877.104-.289.145-.641.145-.97v-1.794zm13.343 4.599c0 2.31-.474 3.692-1.423 4.579-.99.887-2.393 1.195-3.651 1.195-1.196 0-2.516-.289-3.32-.824l.454-1.402c.66.433 1.691.804 2.929.804 1.856 0 3.217-.97 3.217-3.506v-1.093h-.041c-.536.928-1.629 1.67-3.176 1.67-2.475 0-4.249-2.104-4.249-4.888 0-3.382 2.207-5.28 4.517-5.28 1.732 0 2.661.887 3.114 1.713h.042l.062-1.485h1.609c-.062.701-.083 1.505-.083 2.722v5.795zm-1.815-4.599c0-.289-.021-.557-.103-.805-.33-1.072-1.196-1.939-2.537-1.939-1.732 0-2.97 1.465-2.97 3.795 0 1.939 1.011 3.59 2.949 3.59 1.134 0 2.145-.702 2.516-1.877.104-.289.145-.641.145-.97v-1.794zm5.836 1.381c.042 2.455 1.588 3.465 3.403 3.465 1.299 0 2.104-.227 2.764-.494l.33 1.278c-.639.288-1.753.64-3.341.64-3.053 0-4.909-2.042-4.909-5.033 0-3.031 1.794-5.402 4.702-5.402 3.259 0 4.104 2.866 4.104 4.701 0 .371-.021.66-.062.867l-6.991-.022zm5.301-1.299c.021-1.135-.475-2.949-2.496-2.949-1.856 0-2.64 1.691-2.784 2.949h5.28zm4.022-.887a46.99 46.99 0 0 0-.083-3.114h1.588l.083 1.959h.062c.454-1.341 1.567-2.187 2.784-2.187.186 0 .33.021.495.062v1.691c-.207-.021-.392-.041-.64-.041-1.279 0-2.186.969-2.434 2.309-.041.27-.062.558-.062.867v5.32h-1.815l.022-6.866z"/></g><g><path fill="none" stroke="#008EAF" stroke-width="3" d="M6.097 19.698L6.097 356.339 549.608 356.339"/><path fill="#008EAF" d="M558.661 356.339c-4.26 1.581-9.545 4.277-12.82 7.132l2.58-7.132-2.58-7.132c3.275 2.855 8.56 5.552 12.82 7.132z"/><path fill="#008EAF" d="M6.097 9.107L12.194 24.032 6.097 20.49 0 24.032z"/></g><g><path fill="#008EAF" d="M508.937 331.697h-3.305v-2.237h9.407v2.237h-3.342v9.544h-2.761v-9.544zm10.351-2.238v11.781h-2.76v-11.781h2.76zm12.749 7.272a125.803 125.803 0 0 1-.108-4.842h-.037a71.589 71.589 0 0 1-1.38 4.562l-1.489 4.597h-2.161l-1.308-4.544a60.008 60.008 0 0 1-1.107-4.615h-.037a361.52 361.52 0 0 1-.199 4.877l-.236 4.475h-2.561l.781-11.781h3.686l1.199 3.951a47.26 47.26 0 0 1 1.035 4.194h.072a66.765 66.765 0 0 1 1.162-4.229l1.29-3.916h3.632l.654 11.781h-2.688l-.2-4.51zm12.294-.472h-4.504v2.796h5.031v2.186h-7.791V329.46h7.537v2.186h-4.777v2.447h4.504v2.166z"/></g><g><path fill="#008EAF" d="M16.936 13.686L12.62.22h3.336l1.639 5.694c.459 1.619.879 3.137 1.199 4.815h.06c.34-1.618.759-3.216 1.219-4.755L21.791.22h3.237l-4.535 13.466h-3.557zM29.522.22v13.466h-3.037V.22h3.037zm2.737 10.349c.799.419 2.078.839 3.376.839 1.398 0 2.138-.579 2.138-1.478 0-.819-.639-1.319-2.257-1.878-2.238-.799-3.716-2.038-3.716-4.016C31.799 1.738 33.737 0 36.894 0c1.538 0 2.637.3 3.437.679l-.68 2.438a6.292 6.292 0 0 0-2.797-.639c-1.319 0-1.958.619-1.958 1.298 0 .859.739 1.239 2.498 1.918 2.377.879 3.476 2.118 3.476 4.036 0 2.258-1.718 4.176-5.414 4.176-1.539 0-3.057-.419-3.816-.839l.619-2.498zM46.004.22v13.466h-3.037V.22h3.037zm2.637.199c.799-.16 2.398-.3 3.936-.3 1.858 0 2.997.18 3.976.759.939.5 1.598 1.418 1.598 2.657 0 1.179-.699 2.278-2.198 2.857v.04c1.539.399 2.677 1.579 2.677 3.316 0 1.239-.56 2.198-1.398 2.857-.979.779-2.617 1.219-5.294 1.219-1.499 0-2.617-.1-3.297-.2V.419zm3.017 5.135h.999c1.618 0 2.458-.659 2.458-1.658 0-1.019-.779-1.559-2.158-1.559-.68 0-1.059.04-1.299.1v3.117zm0 5.974c.3.06.659.06 1.179.06 1.378 0 2.597-.54 2.597-1.958 0-1.359-1.219-1.898-2.737-1.898h-1.039v3.796zM63.765.22v13.466h-3.037V.22h3.037zm2.657 0h3.037v10.909h5.354v2.557h-8.392V.22zm13.246 0v13.466h-3.037V.22h3.037zm5.254 2.557h-3.636V.22h10.349v2.557h-3.676v10.909h-3.037V2.777zm12.062 10.909V8.171L92.729.22h3.497l1.358 3.237c.419.979.719 1.698 1.039 2.577h.04a51.33 51.33 0 0 1 1.019-2.577L101.041.22h3.417l-4.436 7.852v5.614h-3.038z"/></g></svg>